<mxfile host="app.diagrams.net" modified="2023-04-28T02:25:18.864Z" agent="Mozilla/5.0 (Windows NT 10.0; Win64; x64) AppleWebKit/537.36 (KHTML, like Gecko) Chrome/112.0.0.0 Safari/537.36" version="21.2.3" etag="pH1f5wRaI-rbOpbErsML" type="github">
  <diagram name="PÃ¡gina-1" id="pRIk4iMFBcP3dKWZctKP">
    <mxGraphModel>
      <root>
        <mxCell id="0" />
        <mxCell id="1" parent="0" />
      </root>
    </mxGraphModel>
  </diagram>
</mxfile>
